#!OML:ASF F:\VICON\USERDATA\INSTALL\Justin_Nancy\Justin_Nancy.ASF
:FULLY-SPECIFIED
:DEGREES
103
root 0.129296 17.1396 25.9017 2.35451 -10.2961 1.57086
lowerback 11.3208 0.548221 -2.01533
upperback 0.0266148 0.602 2.17039
thorax -6.37906 0.392716 3.32715
lowerneck -21.5619 -0.861872 -8.30344
upperneck 14.5482 0.192121 6.00811
head 8.01502 0.246137 3.40299
rclavicle 1.02374e-014 -1.59028e-015
rhumerus -68.3701 6.99036 -93.8968
rradius 119.409
rwrist -11.3898
rhand -13.729 32.7788
rfingers 7.12502
rthumb 12.3904 3.16596
lclavicle 1.02374e-014 -1.59028e-015
lhumerus -43.4 -10.1949 97.8372
lradius 109.898
lwrist 23.9554
lhand -14.4564 6.80328
lfingers 7.12502
lthumb 11.689 36.4572
rfemur -30.9485 -2.22069 25.4819
rtibia 33.7862
rfoot -0.8505 7.38004
rtoes 3.35325
lfemur 2.85948 2.82796 -27.0493
ltibia 76.9797
lfoot 29.671 -8.15634
ltoes 2.406
104
root 0.138003 17.0004 26.4772 2.13048 -9.41095 3.42943
lowerback 11.6544 0.384718 -3.48291
upperback -0.308966 0.147633 1.66921
thorax -6.89535 0.225705 3.71137
lowerneck -21.0596 -0.862031 -8.34839
upperneck 14.4716 0.195332 5.8516
head 7.90476 0.223877 3.3505
rclavicle -3.97569e-016 -7.95139e-015
rhumerus -67.0314 7.60845 -94.29
rradius 119.133
rwrist -11.8535
rhand -13.705 32.4702
rfingers 7.12502
rthumb 12.4135 2.8588
lclavicle -3.97569e-016 -7.95139e-015
lhumerus -44.4892 -9.36696 97.86
lradius 107.728
lwrist 25.5698
lhand -14.4421 5.77317
lfingers 7.12502
lthumb 11.7028 35.4263
rfemur -30.7797 -3.17123 23.2285
rtibia 37.5905
rfoot -5.26807 7.14166
rtoes 4.48646
lfemur 0.039075 2.4908 -28.6647
ltibia 81.0492
lfoot 27.502 -6.51876
ltoes 1.23746
105
root 0.0728905 16.9058 27.0745 2.08674 -9.57368 1.94881
lowerback 11.6455 0.58532 -2.70353
upperback -0.085925 0.560655 2.24663
thorax -6.68784 0.403383 3.80899
lowerneck -20.8305 -0.969238 -8.37617
upperneck 14.1155 0.0916217 5.61288
head 7.7558 0.150771 3.25216
rclavicle -1.68967e-014 7.15625e-015
rhumerus -64.8961 8.20118 -94.5536
rradius 118.713
rwrist -12.4597
rhand -13.7085 32.3439
rfingers 7.12502
rthumb 12.4101 2.73231
lclavicle -1.68967e-014 7.15625e-015
lhumerus -44.9937 -8.56276 97.8313
lradius 105.797
lwrist 26.7377
lhand -14.1677 5.79634
lfingers 7.12502
lthumb 11.9674 35.4342
rfemur -29.7548 -1.24756 24.7747
rtibia 40.6252
rfoot -8.14913 6.13631
rtoes 6.22142
lfemur -2.66966 3.65997 -25.3586
ltibia 85.1522
lfoot 24.925 -6.75522
ltoes 1.26242
106
root 0.0277148 16.8259 27.655 2.16052 -9.60103 0.470837
lowerback 11.7701 0.781945 -1.60015
upperback 0.117436 1.00105 2.73607
thorax -6.56957 0.585967 3.62379
lowerneck -21.0185 -1.16797 -8.3502
upperneck 14.0683 -0.111345 5.30745
head 7.78738 0.0270938 3.11993
rclavicle 2.98177e-016 -5.56597e-015
rhumerus -62.4585 8.65973 -94.7073
rradius 118.473
rwrist -13.2445
rhand -13.6414 31.8645
rfingers 7.12502
rthumb 12.4749 2.25683
lclavicle 2.98177e-016 -5.56597e-015
lhumerus -45.3264 -8.11051 97.8233
lradius 103.973
lwrist 27.0359
lhand -14.5669 6.53038
lfingers 7.12502
lthumb 11.5825 36.1903
rfemur -28.8467 0.198845 26.4237
rtibia 43.0365
rfoot -10.3935 1.04366
rtoes 2.30638
lfemur -5.67247 4.67655 -22.2608
ltibia 88.9467
lfoot 22.7143 -7.4255
ltoes -1.04017
107
root -0.00752978 16.7985 28.2363 2.33982 -9.53401 -1.5886
lowerback 12.1582 0.889616 0.235349
upperback 0.233449 1.43761 3.34287
thorax -6.66918 0.749422 3.14667
lowerneck -21.3598 -1.30197 -8.35494
upperneck 14.1679 -0.240584 5.18283
head 7.8876 -0.0453467 3.06628
rclavicle 8.44835e-015 3.65764e-014
rhumerus -60.0238 9.1646 -94.8738
rradius 118.313
rwrist -13.762
rhand -13.768 31.4358
rfingers 7.12502
rthumb 12.3528 1.82072
lclavicle 8.44835e-015 3.65764e-014
lhumerus -45.7761 -7.64936 97.7726
lradius 102.306
lwrist 26.2878
lhand -15.2923 6.63768
lfingers 7.12502
lthumb 10.8828 36.3357
rfemur -27.2011 1.26071 28.7712
rtibia 44.2194
rfoot -12.1576 -2.17753
rtoes 0.540874
lfemur -8.53231 5.65386 -18.5642
ltibia 92.0521
lfoot 20.8911 -8.58887
ltoes -5.53724
108
root -0.0192941 16.6983 28.7899 2.35134 -8.73909 -3.05495
lowerback 12.5909 0.716614 1.74459
upperback 0.323948 1.4598 3.76455
thorax -6.79267 0.717161 2.73313
lowerneck -21.8062 -1.46044 -8.32638
upperneck 14.2786 -0.419753 5.14065
head 8.01266 -0.130138 3.02918
rclavicle 3.22031e-014 3.97569e-014
rhumerus -57.4145 9.91415 -95.0118
rradius 118.174
rwrist -14.1191
rhand -13.6612 31.3515
rfingers 7.12502
rthumb 12.4558 1.74265
lclavicle 3.22031e-014 3.97569e-014
lhumerus -46.4052 -7.06645 97.7047
lradius 100.864
lwrist 24.7579
lhand -15.2667 6.2985
lfingers 7.12502
lthumb 10.9076 35.9952
rfemur -24.6695 1.44614 30.3594
rtibia 44.9404
rfoot -14.2447 -4.46511
rtoes -2.20626
lfemur -11.5088 5.59749 -16.0831
ltibia 95.0354
lfoot 18.86 -8.79147
ltoes -9.49427
109
root -0.0018384 16.6438 29.3935 1.9715 -8.99544 -4.48362
lowerback 13.0055 0.796921 3.41428
upperback 0.55709 1.84148 4.11905
thorax -6.7527 0.854086 2.09266
lowerneck -21.9534 -1.66384 -8.29137
upperneck 14.149 -0.689433 5.12875
head 8.01315 -0.253831 2.98349
rclavicle 1.04362e-014 2.06736e-014
rhumerus -54.9971 10.9608 -95.1156
rradius 118.228
rwrist -14.1176
rhand -13.7935 31.4126
rfingers 7.12502
rthumb 12.3282 1.79607
lclavicle 1.04362e-014 2.06736e-014
lhumerus -47.3144 -6.37403 97.6487
lradius 99.5544
lwrist 22.7199
lhand -15.3482 6.36365
lfingers 7.12502
lthumb 10.8289 36.0645
rfemur -21.6008 1.94312 31.6803
rtibia 45.3805
rfoot -16.2402 -6.25653
rtoes -5.75248
lfemur -13.296 6.40874 -14.0316
ltibia 97.0201
lfoot 16.5527 -8.16637
ltoes 2.27192
110
root -0.0766071 16.5702 29.9315 1.66195 -10.3685 -7.5147
lowerback 14.0672 1.32679 5.09931
upperback 0.887872 2.92702 5.16589
thorax -6.98648 1.34091 2.04011
lowerneck -21.8672 -1.82142 -8.3215
upperneck 13.7922 -0.906856 5.19353
head 7.89506 -0.347935 2.97687
rclavicle -9.34288e-015 1.03368e-014
rhumerus -52.4011 11.9047 -95.1651
rradius 118.411
rwrist -13.7592
rhand -13.9283 31.1722
rfingers 7.12502
rthumb 12.1982 1.54785
lclavicle -9.34288e-015 1.03368e-014
lhumerus -48.3121 -5.71026 97.5787
lradius 98.5669
lwrist 20.8249
lhand -15.2264 6.25714
lfingers 7.12502
lthumb 10.9463 35.9518
rfemur -18.7944 5.02987 35.3571
rtibia 45.6877
rfoot -16.885 -8.82554
rtoes -6.88733
lfemur -15.8078 9.43043 -8.18435
ltibia 99.6069
lfoot 14.0084 -9.56766
ltoes 4.9463
111
root -0.0577725 16.5595 30.4344 2.83621 -7.92747 -5.65508
lowerback 13.2707 0.791273 3.86271
upperback 0.283086 1.9761 4.65967
thorax -7.20524 0.909492 2.39178
lowerneck -21.9999 -1.97051 -8.49395
upperneck 13.5904 -1.07617 5.38374
head 7.86385 -0.413857 3.04559
rclavicle 9.34288e-015 1.59028e-015
rhumerus -49.7756 12.8202 -95.0944
rradius 118.762
rwrist -13.243
rhand -13.7875 30.8305
rfingers 7.12502
rthumb 12.334 1.21435
lclavicle 9.34288e-015 1.59028e-015
lhumerus -49.4102 -5.04914 97.5407
lradius 98.1501
lwrist 19.6009
lhand -14.8138 6.42265
lfingers 7.12502
lthumb 11.3443 36.0958
rfemur -18.837 3.01147 32.903
rtibia 46.0812
rfoot -18.4453 -9.1262
rtoes -9.02393
lfemur -21.6972 7.18315 -11.428
ltibia 101.084
lfoot 13.0261 -7.10332
ltoes 2.39279
112
root -0.0691864 16.5208 30.968 3.08618 -7.23544 -4.94435
lowerback 13.4181 0.832845 3.06095
upperback -0.00157309 1.9302 4.55057
thorax -7.61527 0.911967 2.73836
lowerneck -22.1273 -2.08451 -8.59288
upperneck 13.6875 -1.19565 5.40771
head 7.92737 -0.47325 3.05609
rclavicle -6.85807e-015 -5.56597e-015
rhumerus -47.7488 13.6514 -94.9621
rradius 119.57
rwrist -12.8216
rhand -13.777 31.1469
rfingers 7.12502
rthumb 12.3441 1.53128
lclavicle -6.85807e-015 -5.56597e-015
lhumerus -50.8125 -4.71151 97.6733
lradius 98.1466
lwrist 19.5273
lhand -14.5915 6.59265
lfingers 7.12502
lthumb 11.5587 36.2539
rfemur -16.7457 2.70306 32.025
rtibia 46.1056
rfoot -19.5224 -10.2754
rtoes -15.36
lfemur -25.6921 6.99739 -12.2985
ltibia 102.221
lfoot 11.2825 -5.7312
ltoes -0.592466
